<svg id="visual" viewBox="0 0 2700 1800" width="2700" height="1800" xmlns="http://www.w3.org/2000/svg" xmlns:xlink="http://www.w3.org/1999/xlink" version="1.1"><rect x="0" y="0" width="2700" height="1800" fill="#00000000"></rect><defs><linearGradient id="grad1_0" x1="33.3%" y1="100%" x2="100%" y2="0%"><stop offset="20%" stop-color="#00000000" stop-opacity="1"></stop><stop offset="80%" stop-color="#00000000" stop-opacity="1"></stop></linearGradient></defs><defs><linearGradient id="grad2_0" x1="0%" y1="100%" x2="66.7%" y2="0%"><stop offset="20%" stop-color="#00000000" stop-opacity="1"></stop><stop offset="80%" stop-color="#00000000" stop-opacity="1"></stop></linearGradient></defs><g transform="translate(2700, 1800)"><path d="M-1460.2 0C-1441.8 -192.8 -1423.3 -385.6 -1349.1 -558.8C-1274.9 -732 -1145 -885.6 -998.4 -998.4C-851.8 -1111.3 -688.5 -1183.5 -519.3 -1253.7C-350.1 -1323.9 -175.1 -1392.1 0 -1460.2L0 0Z" fill="#3c7efa"></path></g><g transform="translate(0, 0)"><path d="M1460.2 0C1416.9 189.7 1373.5 379.4 1286 532.7C1198.6 686 1067.1 802.9 946.1 946.1C825.1 1089.4 714.7 1259 558.8 1349.1C402.9 1439.2 201.4 1449.7 0 1460.2L0 0Z" fill="#3c7efa"></path></g></svg>