<svg id="visual" viewBox="0 0 960 540" width="960" height="540" xmlns="http://www.w3.org/2000/svg" xmlns:xlink="http://www.w3.org/1999/xlink" version="1.1"><path d="M0 322L26.7 319.3C53.3 316.7 106.7 311.3 160 313.2C213.3 315 266.7 324 320 331C373.3 338 426.7 343 480 338.8C533.3 334.7 586.7 321.3 640 312.3C693.3 303.3 746.7 298.7 800 298.2C853.3 297.7 906.7 301.3 933.3 303.2L960 305L960 541L933.3 541C906.7 541 853.3 541 800 541C746.7 541 693.3 541 640 541C586.7 541 533.3 541 480 541C426.7 541 373.3 541 320 541C266.7 541 213.3 541 160 541C106.7 541 53.3 541 26.7 541L0 541Z" fill="#4facf7"></path><path d="M0 350L26.7 353.8C53.3 357.7 106.7 365.3 160 375C213.3 384.7 266.7 396.3 320 400.2C373.3 404 426.7 400 480 398.3C533.3 396.7 586.7 397.3 640 396.5C693.3 395.7 746.7 393.3 800 386C853.3 378.7 906.7 366.3 933.3 360.2L960 354L960 541L933.3 541C906.7 541 853.3 541 800 541C746.7 541 693.3 541 640 541C586.7 541 533.3 541 480 541C426.7 541 373.3 541 320 541C266.7 541 213.3 541 160 541C106.7 541 53.3 541 26.7 541L0 541Z" fill="#0089ff"></path><path d="M0 464L26.7 455.3C53.3 446.7 106.7 429.3 160 424.3C213.3 419.3 266.7 426.7 320 429.2C373.3 431.7 426.7 429.3 480 429.7C533.3 430 586.7 433 640 436.5C693.3 440 746.7 444 800 446.8C853.3 449.7 906.7 451.3 933.3 452.2L960 453L960 541L933.3 541C906.7 541 853.3 541 800 541C746.7 541 693.3 541 640 541C586.7 541 533.3 541 480 541C426.7 541 373.3 541 320 541C266.7 541 213.3 541 160 541C106.7 541 53.3 541 26.7 541L0 541Z" fill="#005dff"></path><path d="M0 489L26.7 483C53.3 477 106.7 465 160 461C213.3 457 266.7 461 320 471.5C373.3 482 426.7 499 480 506.2C533.3 513.3 586.7 510.7 640 509.3C693.3 508 746.7 508 800 498.8C853.3 489.7 906.7 471.3 933.3 462.2L960 453L960 541L933.3 541C906.7 541 853.3 541 800 541C746.7 541 693.3 541 640 541C586.7 541 533.3 541 480 541C426.7 541 373.3 541 320 541C266.7 541 213.3 541 160 541C106.7 541 53.3 541 26.7 541L0 541Z" fill="#0004ff"></path></svg>