<svg width="1920" height="1080" viewBox="0 0 1920 1080" xmlns="http://www.w3.org/2000/svg"><path d="M1920,1080C1601,1086,284.8333333333333,1115.1666666666667,0,1080C-284.8333333333333,1044.8333333333333,141,929.5,211,869C281,808.5,349.5,729.1666666666666,420,717C490.5,704.8333333333334,562.3333333333334,753,634,796C705.6666666666666,839,778.3333333333334,951.5,850,975C921.6666666666666,998.5,993.5,959.3333333333334,1064,937C1134.5,914.6666666666666,1202.8333333333333,846.8333333333334,1273,841C1343.1666666666667,835.1666666666666,1413.3333333333333,890,1485,902C1556.6666666666667,914,1631.5,889.3333333333334,1703,913C1774.5,936.6666666666666,1877.8333333333333,1016.1666666666666,1914,1044C1950.1666666666667,1071.8333333333333,2239,1074,1920,1080C1601,1086,284.8333333333333,1115.1666666666667,0,1080" fill="#5c9aff"/></svg>