<svg width="1920" height="1080" viewBox="0 0 1920 1080" xmlns="http://www.w3.org/2000/svg"><path d="M 0,1080 C 0,1080 0,180 0,180 C 84.26410256410256,213.41794871794872 168.52820512820512,246.8358974358974 290,237 C 411.4717948717949,227.1641025641026 570.1512820512821,174.07435897435897 697,150 C 823.8487179487179,125.92564102564103 918.8666666666668,130.86666666666665 997,132 C 1075.1333333333332,133.13333333333335 1136.3820512820512,130.45897435897436 1234,129 C 1331.6179487179488,127.54102564102564 1465.605128205128,127.29743589743589 1586,136 C 1706.394871794872,144.7025641025641 1813.197435897436,162.35128205128206 1920,180 C 1920,180 1920,1080 1920,1080 Z" fill="#0010eb" opacity="0.09999999999999999"/><path d="M 0,1080 C 0,1080 0,360 0,360 C 139.50769230769234,392.64102564102564 279.0153846153847,425.28205128205127 376,410 C 472.9846153846153,394.71794871794873 527.4461538461538,331.5128205128205 629,314 C 730.5538461538462,296.4871794871795 879.2,324.6666666666667 992,325 C 1104.8,325.3333333333333 1181.753846153846,297.82051282051276 1279,316 C 1376.246153846154,334.17948717948724 1493.7846153846156,398.0512820512821 1604,413 C 1714.2153846153844,427.9487179487179 1817.107692307692,393.97435897435895 1920,360 C 1920,360 1920,1080 1920,1080 Z" fill="#0010eb" opacity="0.19999999999999998"/><path d="M 0,1080 C 0,1080 0,540 0,540 C 83.16410256410254,532.6282051282051 166.32820512820507,525.2564102564103 287,527 C 407.67179487179493,528.7435897435897 565.8512820512822,539.6025641025641 671,527 C 776.1487179487178,514.3974358974359 828.2666666666667,478.33333333333337 935,495 C 1041.7333333333333,511.66666666666663 1203.0820512820515,581.0641025641027 1306,588 C 1408.9179487179485,594.9358974358973 1453.405128205128,539.4102564102564 1546,521 C 1638.594871794872,502.58974358974365 1779.2974358974361,521.2948717948718 1920,540 C 1920,540 1920,1080 1920,1080 Z" fill="#0010eb" opacity="0.3"/><path d="M 0,1080 C 0,1080 0,720 0,720 C 111.6076923076923,749.6025641025641 223.2153846153846,779.2051282051282 331,782 C 438.7846153846154,784.7948717948718 542.7461538461539,760.7820512820514 652,728 C 761.2538461538461,695.2179487179486 875.8,653.6666666666666 987,667 C 1098.2,680.3333333333334 1206.053846153846,748.551282051282 1308,754 C 1409.946153846154,759.448717948718 1505.9846153846154,702.1282051282052 1607,686 C 1708.0153846153846,669.8717948717948 1814.0076923076922,694.9358974358975 1920,720 C 1920,720 1920,1080 1920,1080 Z" fill="#0010eb" opacity="0.39999999999999997"/><path d="M 0,1080 C 0,1080 0,900 0,900 C 86.06666666666666,913.5897435897436 172.13333333333333,927.1794871794872 268,927 C 363.8666666666667,926.8205128205128 469.5333333333334,912.8717948717949 596,918 C 722.4666666666666,923.1282051282051 869.7333333333333,947.3333333333331 980,961 C 1090.2666666666667,974.6666666666669 1163.5333333333333,977.7948717948718 1271,963 C 1378.4666666666667,948.2051282051282 1520.1333333333334,915.4871794871794 1634,902 C 1747.8666666666666,888.5128205128206 1833.9333333333334,894.2564102564103 1920,900 C 1920,900 1920,1080 1920,1080 Z" fill="#0010eb" opacity="0.49999999999999994"/></svg>