<svg width="1920" height="1080" viewBox="0 0 1920 1080" xmlns="http://www.w3.org/2000/svg"><path d="M 0,1080 C 0,1080 0,180 0,180 C 124.45641025641024,186.77948717948718 248.91282051282047,193.55897435897435 371,198 C 493.0871794871795,202.44102564102565 612.8051282051283,204.54358974358973 687,198 C 761.1948717948717,191.45641025641027 789.8666666666664,176.26666666666665 900,177 C 1010.1333333333336,177.73333333333335 1201.7282051282052,194.3897435897436 1335,202 C 1468.2717948717948,209.6102564102564 1543.2205128205128,208.17435897435897 1631,203 C 1718.7794871794872,197.82564102564103 1819.3897435897436,188.91282051282053 1920,180 C 1920,180 1920,1080 1920,1080 Z" fill="#5907d5" opacity="0.09999999999999999"/><path d="M 0,1080 C 0,1080 0,360 0,360 C 89.99230769230766,339.9846153846154 179.98461538461532,319.96923076923076 301,304 C 422.0153846153847,288.03076923076924 574.0538461538462,276.1076923076924 693,309 C 811.9461538461538,341.8923076923076 897.8000000000002,419.59999999999997 988,422 C 1078.1999999999998,424.40000000000003 1172.746153846154,351.4923076923077 1280,315 C 1387.253846153846,278.5076923076923 1507.2153846153844,278.4307692307692 1616,292 C 1724.7846153846156,305.5692307692308 1822.392307692308,332.7846153846154 1920,360 C 1920,360 1920,1080 1920,1080 Z" fill="#5907d5" opacity="0.19999999999999998"/><path d="M 0,1080 C 0,1080 0,540 0,540 C 128.78205128205127,537.0538461538462 257.56410256410254,534.1076923076923 355,520 C 452.43589743589746,505.8923076923077 518.525641025641,480.62307692307695 606,485 C 693.474358974359,489.37692307692305 802.3333333333335,523.4 904,527 C 1005.6666666666665,530.6 1100.1410256410256,503.7769230769231 1220,490 C 1339.8589743589744,476.2230769230769 1485.1025641025642,475.4923076923077 1606,486 C 1726.8974358974358,496.5076923076923 1823.4487179487178,518.2538461538461 1920,540 C 1920,540 1920,1080 1920,1080 Z" fill="#5907d5" opacity="0.3"/><path d="M 0,1080 C 0,1080 0,720 0,720 C 84.04615384615383,722.4179487179488 168.09230769230766,724.8358974358974 284,730 C 399.90769230769234,735.1641025641026 547.6769230769231,743.0743589743589 647,752 C 746.3230769230769,760.9256410256411 797.1999999999999,770.8666666666667 910,766 C 1022.8000000000001,761.1333333333333 1197.523076923077,741.4589743589743 1333,733 C 1468.476923076923,724.5410256410257 1564.7076923076922,727.297435897436 1656,727 C 1747.2923076923078,726.702564102564 1833.646153846154,723.3512820512819 1920,720 C 1920,720 1920,1080 1920,1080 Z" fill="#5907d5" opacity="0.39999999999999997"/><path d="M 0,1080 C 0,1080 0,900 0,900 C 80.3025641025641,929.0999999999999 160.6051282051282,958.1999999999999 266,949 C 371.3948717948718,939.8000000000001 501.8820512820513,892.3 614,870 C 726.1179487179487,847.7 819.8666666666666,850.6000000000001 918,875 C 1016.1333333333334,899.3999999999999 1118.6512820512824,945.3 1231,953 C 1343.3487179487176,960.7 1465.5282051282052,930.2 1582,915 C 1698.4717948717948,899.8 1809.2358974358974,899.9 1920,900 C 1920,900 1920,1080 1920,1080 Z" fill="#5907d5" opacity="0.49999999999999994"/></svg>