<svg id="visual" viewBox="0 0 900 600" width="900" height="600" xmlns="http://www.w3.org/2000/svg" xmlns:xlink="http://www.w3.org/1999/xlink" version="1.1"><rect x="0" y="0" width="900" height="600" fill="#001220"></rect><defs><linearGradient id="grad1_0" x1="33.3%" y1="0%" x2="100%" y2="100%"><stop offset="20%" stop-color="#001220" stop-opacity="1"></stop><stop offset="80%" stop-color="#001220" stop-opacity="1"></stop></linearGradient></defs><defs><linearGradient id="grad2_0" x1="0%" y1="0%" x2="66.7%" y2="100%"><stop offset="20%" stop-color="#001220" stop-opacity="1"></stop><stop offset="80%" stop-color="#001220" stop-opacity="1"></stop></linearGradient></defs><g transform="translate(900, 0)"><path d="M0 486.7C-55.2 462 -110.4 437.3 -173.4 418.5C-236.3 399.7 -307.1 386.8 -344.2 344.2C-381.3 301.5 -384.7 229.2 -402.8 166.8C-421 104.5 -453.9 52.3 -486.7 0L0 0Z" fill="#0066FF"></path></g><g transform="translate(0, 600)"><path d="M0 -486.7C62.1 -470 124.2 -453.3 176 -425C227.8 -396.7 269.4 -356.9 317.5 -317.5C365.6 -278.1 420.4 -239.1 449.7 -186.3C479 -133.4 482.9 -66.7 486.7 0L0 0Z" fill="#0066FF"></path></g></svg>