<svg width="1920" height="1080" viewBox="0 0 1920 1080" xmlns="http://www.w3.org/2000/svg"><path d="M1920,1080C1600.3333333333333,1179.1666666666667,308,1153.5,0,1080C-308,1006.5,47.83333333333333,719,72,639C96.16666666666667,559,120.66666666666667,576.8333333333334,145,600C169.33333333333334,623.1666666666666,193.16666666666666,783.5,218,778C242.83333333333334,772.5,269.3333333333333,583.6666666666666,294,567C318.6666666666667,550.3333333333334,341.6666666666667,629.5,366,678C390.3333333333333,726.5,415.3333333333333,800,440,858C464.6666666666667,916,489.1666666666667,997.5,514,1026C538.8333333333334,1054.5,564.3333333333334,1123.3333333333333,589,1029C613.6666666666666,934.6666666666666,637.3333333333334,533.3333333333334,662,460C686.6666666666666,386.6666666666667,712.1666666666666,577.5,737,589C761.8333333333334,600.5,786.3333333333334,464.6666666666667,811,529C835.6666666666666,593.3333333333334,860.3333333333334,943.6666666666666,885,975C909.6666666666666,1006.3333333333334,934.6666666666666,813.8333333333334,959,717C983.3333333333334,620.1666666666666,1006.3333333333334,377.6666666666667,1031,394C1055.6666666666667,410.3333333333333,1082.1666666666667,738,1107,815C1131.8333333333333,892,1155.8333333333333,874.6666666666666,1180,856C1204.1666666666667,837.3333333333334,1227.6666666666667,755.6666666666666,1252,703C1276.3333333333333,650.3333333333334,1301.1666666666667,563.1666666666666,1326,540C1350.8333333333333,516.8333333333334,1376.5,565.5,1401,564C1425.5,562.5,1448.6666666666667,510.8333333333333,1473,531C1497.3333333333333,551.1666666666666,1522,622.1666666666666,1547,685C1572,747.8333333333334,1598,907.3333333333334,1623,908C1648,908.6666666666666,1672.3333333333333,710.1666666666666,1697,689C1721.6666666666667,667.8333333333334,1746.5,827.8333333333334,1771,781C1795.5,734.1666666666666,1819.5,457.3333333333333,1844,408C1868.5,358.6666666666667,1905.3333333333333,373,1918,485C1930.6666666666667,597,2239.6666666666665,980.8333333333334,1920,1080C1600.3333333333333,1179.1666666666667,308,1153.5,0,1080" fill="#057eff"/></svg>